<mxfile host="app.diagrams.net" modified="2024-05-05T07:07:57.032Z" agent="Mozilla/5.0 (Windows NT 10.0; Win64; x64) AppleWebKit/537.36 (KHTML, like Gecko) Chrome/124.0.0.0 Safari/537.36 Edg/124.0.0.0" etag="dllMhATfUxw8jBW7E6L2" version="24.3.1" type="github">
  <diagram id="C5RBs43oDa-KdzZeNtuy" name="Page-1">
    <mxGraphModel dx="996" dy="986" grid="0" gridSize="10" guides="1" tooltips="1" connect="1" arrows="1" fold="1" page="0" pageScale="1" pageWidth="827" pageHeight="1169" math="0" shadow="0">
      <root>
        <mxCell id="WIyWlLk6GJQsqaUBKTNV-0" />
        <mxCell id="WIyWlLk6GJQsqaUBKTNV-1" parent="WIyWlLk6GJQsqaUBKTNV-0" />
        <mxCell id="LFCkFrp7Bca4Lx776up4-4" value="" style="edgeStyle=orthogonalEdgeStyle;rounded=0;orthogonalLoop=1;jettySize=auto;html=1;" edge="1" parent="WIyWlLk6GJQsqaUBKTNV-1" source="LFCkFrp7Bca4Lx776up4-0" target="LFCkFrp7Bca4Lx776up4-2">
          <mxGeometry relative="1" as="geometry" />
        </mxCell>
        <mxCell id="LFCkFrp7Bca4Lx776up4-0" value="开始" style="strokeWidth=2;html=1;shape=mxgraph.flowchart.terminator;whiteSpace=wrap;fontSize=14;" vertex="1" parent="WIyWlLk6GJQsqaUBKTNV-1">
          <mxGeometry x="150" y="-20" width="100" height="60" as="geometry" />
        </mxCell>
        <mxCell id="LFCkFrp7Bca4Lx776up4-1" value="结束" style="strokeWidth=2;html=1;shape=mxgraph.flowchart.terminator;whiteSpace=wrap;fontSize=14;" vertex="1" parent="WIyWlLk6GJQsqaUBKTNV-1">
          <mxGeometry x="336" y="152" width="100" height="60" as="geometry" />
        </mxCell>
        <mxCell id="LFCkFrp7Bca4Lx776up4-15" value="" style="edgeStyle=orthogonalEdgeStyle;rounded=0;orthogonalLoop=1;jettySize=auto;html=1;" edge="1" parent="WIyWlLk6GJQsqaUBKTNV-1" source="LFCkFrp7Bca4Lx776up4-2" target="LFCkFrp7Bca4Lx776up4-14">
          <mxGeometry relative="1" as="geometry" />
        </mxCell>
        <mxCell id="LFCkFrp7Bca4Lx776up4-2" value="开始学习" style="rounded=1;whiteSpace=wrap;html=1;absoluteArcSize=1;arcSize=14;strokeWidth=2;fontSize=14;" vertex="1" parent="WIyWlLk6GJQsqaUBKTNV-1">
          <mxGeometry x="132.5" y="75" width="135" height="50" as="geometry" />
        </mxCell>
        <mxCell id="LFCkFrp7Bca4Lx776up4-8" value="" style="edgeStyle=orthogonalEdgeStyle;rounded=0;orthogonalLoop=1;jettySize=auto;html=1;" edge="1" parent="WIyWlLk6GJQsqaUBKTNV-1" source="LFCkFrp7Bca4Lx776up4-5" target="LFCkFrp7Bca4Lx776up4-7">
          <mxGeometry relative="1" as="geometry" />
        </mxCell>
        <mxCell id="LFCkFrp7Bca4Lx776up4-5" value="用户标识记忆状态" style="rounded=1;whiteSpace=wrap;html=1;absoluteArcSize=1;arcSize=14;strokeWidth=2;fontSize=14;" vertex="1" parent="WIyWlLk6GJQsqaUBKTNV-1">
          <mxGeometry x="137.5" y="250" width="125" height="50" as="geometry" />
        </mxCell>
        <mxCell id="LFCkFrp7Bca4Lx776up4-10" value="" style="edgeStyle=orthogonalEdgeStyle;rounded=0;orthogonalLoop=1;jettySize=auto;html=1;" edge="1" parent="WIyWlLk6GJQsqaUBKTNV-1" source="LFCkFrp7Bca4Lx776up4-7" target="LFCkFrp7Bca4Lx776up4-9">
          <mxGeometry relative="1" as="geometry" />
        </mxCell>
        <mxCell id="LFCkFrp7Bca4Lx776up4-7" value="计算调整因子" style="rounded=1;whiteSpace=wrap;html=1;absoluteArcSize=1;arcSize=14;strokeWidth=2;fontSize=14;" vertex="1" parent="WIyWlLk6GJQsqaUBKTNV-1">
          <mxGeometry x="145" y="330" width="110" height="50" as="geometry" />
        </mxCell>
        <mxCell id="LFCkFrp7Bca4Lx776up4-12" value="" style="edgeStyle=orthogonalEdgeStyle;rounded=0;orthogonalLoop=1;jettySize=auto;html=1;" edge="1" parent="WIyWlLk6GJQsqaUBKTNV-1" source="LFCkFrp7Bca4Lx776up4-9" target="LFCkFrp7Bca4Lx776up4-11">
          <mxGeometry relative="1" as="geometry" />
        </mxCell>
        <mxCell id="LFCkFrp7Bca4Lx776up4-9" value="更新复习间隔" style="rounded=1;whiteSpace=wrap;html=1;absoluteArcSize=1;arcSize=14;strokeWidth=2;fontSize=14;" vertex="1" parent="WIyWlLk6GJQsqaUBKTNV-1">
          <mxGeometry x="145" y="420" width="110" height="50" as="geometry" />
        </mxCell>
        <mxCell id="LFCkFrp7Bca4Lx776up4-13" style="edgeStyle=orthogonalEdgeStyle;rounded=0;orthogonalLoop=1;jettySize=auto;html=1;entryX=0;entryY=0.5;entryDx=0;entryDy=0;exitX=0;exitY=0.5;exitDx=0;exitDy=0;" edge="1" parent="WIyWlLk6GJQsqaUBKTNV-1" source="LFCkFrp7Bca4Lx776up4-11" target="LFCkFrp7Bca4Lx776up4-2">
          <mxGeometry relative="1" as="geometry" />
        </mxCell>
        <mxCell id="LFCkFrp7Bca4Lx776up4-11" value="保存数据" style="rounded=1;whiteSpace=wrap;html=1;absoluteArcSize=1;arcSize=14;strokeWidth=2;fontSize=14;" vertex="1" parent="WIyWlLk6GJQsqaUBKTNV-1">
          <mxGeometry x="145" y="500" width="110" height="50" as="geometry" />
        </mxCell>
        <mxCell id="LFCkFrp7Bca4Lx776up4-17" style="edgeStyle=orthogonalEdgeStyle;rounded=0;orthogonalLoop=1;jettySize=auto;html=1;" edge="1" parent="WIyWlLk6GJQsqaUBKTNV-1" source="LFCkFrp7Bca4Lx776up4-14" target="LFCkFrp7Bca4Lx776up4-5">
          <mxGeometry relative="1" as="geometry" />
        </mxCell>
        <mxCell id="LFCkFrp7Bca4Lx776up4-18" value="否" style="edgeLabel;html=1;align=center;verticalAlign=middle;resizable=0;points=[];" vertex="1" connectable="0" parent="LFCkFrp7Bca4Lx776up4-17">
          <mxGeometry x="-0.4286" y="-1" relative="1" as="geometry">
            <mxPoint as="offset" />
          </mxGeometry>
        </mxCell>
        <mxCell id="LFCkFrp7Bca4Lx776up4-20" value="" style="edgeStyle=orthogonalEdgeStyle;rounded=0;orthogonalLoop=1;jettySize=auto;html=1;entryX=0;entryY=0.5;entryDx=0;entryDy=0;entryPerimeter=0;" edge="1" parent="WIyWlLk6GJQsqaUBKTNV-1" source="LFCkFrp7Bca4Lx776up4-14" target="LFCkFrp7Bca4Lx776up4-1">
          <mxGeometry relative="1" as="geometry">
            <mxPoint x="322" y="182" as="targetPoint" />
          </mxGeometry>
        </mxCell>
        <mxCell id="LFCkFrp7Bca4Lx776up4-21" value="是" style="edgeLabel;html=1;align=center;verticalAlign=middle;resizable=0;points=[];" vertex="1" connectable="0" parent="LFCkFrp7Bca4Lx776up4-20">
          <mxGeometry x="-0.2052" relative="1" as="geometry">
            <mxPoint as="offset" />
          </mxGeometry>
        </mxCell>
        <mxCell id="LFCkFrp7Bca4Lx776up4-14" value="已学完" style="shape=rhombus;perimeter=rhombusPerimeter;whiteSpace=wrap;html=1;align=center;fontSize=14;" vertex="1" parent="WIyWlLk6GJQsqaUBKTNV-1">
          <mxGeometry x="155" y="152" width="90" height="60" as="geometry" />
        </mxCell>
      </root>
    </mxGraphModel>
  </diagram>
</mxfile>
